<?xml version="1.0" encoding="utf-8"?>
<!-- Generator: Adobe Illustrator 27.2.0, SVG Export Plug-In . SVG Version: 6.00 Build 0)  -->
<svg version="1.1" xmlns="http://www.w3.org/2000/svg" xmlns:xlink="http://www.w3.org/1999/xlink" x="0px" y="0px"
	 viewBox="0 0 100 100" style="enable-background:new 0 0 100 100;" xml:space="preserve">
<style type="text/css">
	.st0{display:none;}
	.st1{display:inline;}
	.st2{fill:#DE8026;}
</style>
<g id="Layer_1" class="st0">
	<g class="st1">
		<g>
			<g>
				<path class="st2" d="M50,0.91C22.89,0.91,0.91,22.89,0.91,50c0,9.28,2.57,17.95,7.05,25.35L1.84,98.93l24.43-5.95
					c7.03,3.89,15.12,6.11,23.72,6.11c27.12,0,49.09-21.98,49.09-49.09C99.09,22.89,77.11,0.91,50,0.91z M50,90.86
					c-8.3,0-16.03-2.49-22.48-6.76l-14.33,3.65l3.73-13.8C12.03,67.22,9.14,58.94,9.14,50C9.14,27.46,27.47,9.13,50,9.13
					c22.54,0,40.86,18.33,40.86,40.87C90.86,72.53,72.53,90.86,50,90.86z"/>
				<path class="st2" d="M70.79,59.93c-0.69-0.34-1.41-0.61-1.99-0.92c-1.66-0.88-3.32-1.75-4.98-2.63
					c-0.51-0.27-1.04-0.54-1.61-0.53c-2.19,0.06-3.21,3.18-4.64,4.38c-0.59,0.49-1.27,0.95-2.03,0.99c-0.63,0.03-1.23-0.23-1.8-0.49
					c-2.87-1.35-5.52-3.18-7.82-5.36c-1.81-1.72-3.39-3.65-4.88-5.65c-0.68-0.92-1.36-1.91-1.49-3.04
					c-0.31-2.79,3.66-3.77,3.77-6.58c0.04-1.03-0.44-1.99-0.86-2.93c-0.73-1.6-1.36-3.25-1.88-4.93c-0.95-3.09-2.75-4.42-6.09-3.67
					c-4.14,0.92-6.32,6.73-6.46,10.43c-0.21,5.54,3.63,11.04,4.16,11.81c2.55,3.67,4.96,7.27,8.18,10.43
					c5.23,5.15,12.47,9.32,19.76,10.54c1.41,0.24,2.85,0.35,4.27,0.15c2.43-0.33,4.7-1.61,6.29-3.46c1.47-1.7,3.37-4.89,1.96-7.09
					C72.24,60.74,71.54,60.3,70.79,59.93z"/>
			</g>
		</g>
	</g>
</g>
<g id="Layer_2">
	<path class="st2" d="M89.27,96.04H9.12c-3.47,0-6.3-2.93-6.3-6.54V73.34c0-1.71,1.31-3.09,2.92-3.09c1.61,0,2.92,1.38,2.92,3.09
		v16.17c0,0.17,0.19,0.36,0.46,0.36h80.14c0.27,0,0.46-0.19,0.46-0.36V73.34c0-1.71,1.31-3.09,2.92-3.09c1.61,0,2.92,1.38,2.92,3.09
		v16.17C95.57,93.11,92.74,96.04,89.27,96.04z"/>
	<g>
		<path class="st2" d="M50,66.83c-1.71,0-3.09-1.38-3.09-3.09V7.04c0-1.71,1.38-3.09,3.09-3.09s3.09,1.38,3.09,3.09v56.7
			C53.09,65.45,51.71,66.83,50,66.83z"/>
		<path class="st2" d="M50,72.96c-0.82,0-1.6-0.33-2.18-0.9L21.39,45.63c-1.21-1.21-1.21-3.16,0-4.37c1.21-1.21,3.16-1.21,4.37,0
			L50,65.51l24.24-24.24c1.21-1.21,3.16-1.21,4.37,0c1.21,1.21,1.21,3.16,0,4.37L52.18,72.06C51.6,72.64,50.82,72.96,50,72.96z"/>
	</g>
</g>
<g id="Layer_3" class="st0">
	<g class="st1">
		<path class="st2" d="M77.4,76.17l-15.24-5.74c0,0-4.48-1.98-9.38,1.77l-3.8,3.18c0,0-1.33-0.51-3.1-1.32l0,0
			c0,0-16.92-13.3-20.76-24.89c-0.12-0.39-0.23-0.76-0.33-1.1c0,0,0,0,0,0l0,0c-0.33-1.16-0.52-1.94-0.52-1.94l3.74-3.24
			c4.49-4.24,3.24-8.98,3.24-8.98l-3.24-15.96C21.04,4.99,6.07,20.7,6.07,20.7C0.98,29.4,1.32,38.28,3.76,46.01
			c0.08,0.45,4.53,24.31,33.73,44.27c8.32,6.57,20.31,12.32,33.7,7.13C71.2,97.4,89.09,85.13,77.4,76.17z"/>
		<g>
			<path class="st2" d="M63.94,58.79c-0.13,0-0.26-0.01-0.39-0.02c-2.05-0.21-3.55-2.05-3.33-4.11c0.86-8.29-5.18-15.74-13.47-16.6
				c-2.05-0.21-3.55-2.05-3.33-4.11c0.21-2.05,2.05-3.55,4.11-3.33c12.39,1.29,21.42,12.43,20.13,24.82
				C67.46,57.36,65.84,58.79,63.94,58.79z"/>
			<path class="st2" d="M78.82,60.34c-0.13,0-0.26-0.01-0.39-0.02c-2.05-0.21-3.55-2.05-3.33-4.11c0.83-7.99-1.5-15.83-6.56-22.07
				C63.48,27.91,56.3,24.01,48.3,23.18c-2.05-0.21-3.55-2.05-3.33-4.11s2.05-3.55,4.11-3.33c9.98,1.04,18.95,5.9,25.27,13.7
				c6.32,7.79,9.23,17.58,8.19,27.55C82.34,58.91,80.72,60.34,78.82,60.34z"/>
			<path class="st2" d="M93.95,61.92c-0.13,0-0.26-0.01-0.39-0.02c-2.05-0.21-3.55-2.05-3.33-4.11
				c2.59-24.84-15.51-47.15-40.35-49.74C47.83,7.83,46.34,6,46.55,3.94c0.21-2.05,2.05-3.55,4.11-3.33
				c28.94,3.02,50.03,29.02,47.01,57.96C97.47,60.49,95.84,61.92,93.95,61.92z"/>
		</g>
	</g>
</g>
</svg>
